<svg width="160" height="40" viewBox="0 0 160 40" fill="none" xmlns="http://www.w3.org/2000/svg">
<g clip-path="url(#clip0_319_1787)">
<path d="M39.4741 26.9844L38.5538 25.7354L34.5768 20.4108C34.3796 20.1479 34.3796 19.8192 34.5768 19.5563L35.6943 18.0444L39.4741 12.9827C40.0986 12.1282 40.1315 10.9778 39.5727 10.0575L34.0181 1.34758C33.4593 0.493016 32.539 0 31.5201 0H2.85949C1.28184 0 0 1.28184 0 2.85949V37.1076C0 38.6853 1.28184 39.9671 2.85949 39.9671H31.4873C32.5062 39.9671 33.4265 39.4741 34.0181 38.5867L39.6056 29.9096C40.1643 28.9893 40.0986 27.8718 39.4741 26.9844ZM36.779 28.9565L31.8159 36.7461C31.6845 36.9433 31.4544 37.0748 31.2243 37.0748H3.61545C3.22104 37.0748 2.89236 36.7461 2.89236 36.3517V3.61545C2.89236 3.22104 3.22104 2.89236 3.61545 2.89236H31.2243C31.4544 2.89236 31.6845 3.02383 31.8159 3.22104L36.779 11.0435C36.9433 11.3065 36.9104 11.6023 36.7461 11.8652L32.802 17.1569H32.1446L28.6935 12.5555C28.1348 11.8324 27.3131 11.4051 26.3928 11.4051H14.2975C12.7198 11.4051 11.438 12.6869 11.438 14.2646V25.6697C11.438 27.2473 12.7198 28.5292 14.2975 28.5292H26.5571C27.4774 28.5292 28.332 28.1019 28.8907 27.3459L30.6984 24.848L29.1537 22.7773H28.5949L26.7214 25.3081C26.59 25.5053 26.3599 25.6039 26.1627 25.6039H15.0205C14.6261 25.6039 14.2975 25.2753 14.2975 24.8809V15.0205C14.2975 14.6261 14.6261 14.2975 15.0205 14.2975H26.0312C26.2613 14.2975 26.4585 14.3961 26.59 14.5933L36.7132 28.1676C36.9104 28.3977 36.9104 28.7264 36.779 28.9565Z" fill="#AA3C28"/>
<path d="M54.4619 30.8957V10.8793H61.8571C65.6041 10.8793 68.0363 12.7527 68.0363 16.0395C68.0363 17.913 66.7544 19.392 65.4726 19.9508C67.4447 20.6739 68.9566 22.2844 68.9566 25.0453C68.9566 28.6607 66.3929 30.8957 62.2516 30.8957H54.4619ZM57.3871 18.9647H61.6928C63.9278 18.9647 65.1111 18.0116 65.1111 16.171C65.1111 14.3304 63.8949 13.3772 61.6599 13.3772H57.3543V18.9647H57.3871ZM57.3871 28.2663H61.8243C64.618 28.2663 65.9985 27.0831 65.9985 24.9138C65.9985 22.7445 64.618 21.5613 61.8243 21.5613H57.3871V28.2663Z" fill="#AA3C28"/>
<path d="M83.9115 16.4995V30.8956H81.1506V28.3648C80.3947 30.1725 78.6527 31.1257 76.5163 31.1257C73.2624 31.1257 71.126 28.7921 71.126 25.341V16.4667H73.8869V24.7822C73.8869 27.0829 75.2344 28.6277 77.2722 28.6277C79.5401 28.6277 81.1178 26.7871 81.1178 24.2892V16.4995H83.9115Z" fill="#AA3C28"/>
<path d="M86.541 10.4191H89.6963V14.0345H86.541V10.4191ZM86.7382 30.8956V16.4996H89.4991V30.8956H86.7382Z" fill="#AA3C28"/>
<path d="M92.457 30.8956V10.4519H95.2179V30.8956H92.457Z" fill="#AA3C28"/>
<path d="M97.3213 23.6976C97.3213 19.3919 99.8192 16.2695 104.224 16.2695C106.196 16.2695 107.938 17.2227 108.792 18.6031V10.4519H111.553V30.8956H108.792V28.7592C107.938 30.2054 106.163 31.1257 104.256 31.1257C99.8192 31.1257 97.3213 27.9704 97.3213 23.6976ZM108.989 23.6976C108.989 20.7066 107.247 18.7017 104.552 18.7017C101.89 18.7017 100.148 20.7066 100.148 23.6976C100.148 26.6886 101.89 28.6935 104.552 28.6935C107.247 28.6935 108.989 26.6886 108.989 23.6976Z" fill="#AA3C28"/>
<path d="M117.437 28.7592V30.8956H114.676V10.4519H117.437V18.6031C118.258 17.1898 120 16.2695 121.972 16.2695C126.377 16.2695 128.875 19.4248 128.875 23.6976C128.875 27.9704 126.377 31.1257 121.94 31.1257C120.033 31.1257 118.258 30.1725 117.437 28.7592ZM126.081 23.6976C126.081 20.7066 124.306 18.7017 121.644 18.7017C118.949 18.7017 117.207 20.7066 117.207 23.6976C117.207 26.6886 118.949 28.6935 121.644 28.6935C124.306 28.6935 126.081 26.6886 126.081 23.6976Z" fill="#AA3C28"/>
<path d="M130.715 10.4191H133.87V14.0345H130.715V10.4191ZM130.912 30.8956V16.4996H133.673V30.8956H130.912Z" fill="#AA3C28"/>
<path d="M138.143 11.9639H140.904V16.4667H145.177V18.8661H140.904V25.9655C140.904 27.5103 141.726 28.3649 143.139 28.3649H145.177V30.8957H142.909C139.984 30.8957 138.143 29.1208 138.143 26.1627V18.899H135.185V16.4996H138.143V11.9639Z" fill="#AA3C28"/>
<path d="M159.573 26.1956C159.047 29.1537 156.451 31.1258 152.901 31.1258C148.431 31.1258 145.67 27.6089 145.67 23.5991C145.67 19.5563 148.201 16.2367 152.605 16.2367C157.075 16.2367 159.441 19.4249 159.441 23.0732C159.441 23.4347 159.409 23.8949 159.376 24.1578H148.365C148.595 26.8858 150.37 28.7264 152.868 28.7264C154.971 28.7264 156.352 27.8061 156.746 26.1956H159.573ZM148.464 22.1529H156.648C156.483 19.9507 155.004 18.5046 152.605 18.5046C150.337 18.5046 148.891 19.7535 148.464 22.1529Z" fill="#AA3C28"/>
</g>
<defs>
<clipPath id="clip0_319_1787">
<rect width="159.573" height="40" fill="white"/>
</clipPath>
</defs>
</svg>
