<svg width="30" height="30" viewBox="0 0 30 30" fill="none" xmlns="http://www.w3.org/2000/svg">
<path d="M23.9678 7.09283L24.4982 6.5625L23.4375 5.50184L22.9072 6.03217L23.9678 7.09283ZM6.03217 22.9072L5.50184 23.4375L6.5625 24.4982L7.09283 23.9678L6.03217 22.9072ZM22.9072 6.03217L6.03217 22.9072L7.09283 23.9678L23.9678 7.09283L22.9072 6.03217Z" fill="#37414B"/>
<path d="M22.9072 23.9678L23.4375 24.4982L24.4982 23.4375L23.9678 22.9072L22.9072 23.9678ZM7.09283 6.03217L6.5625 5.50184L5.50184 6.5625L6.03217 7.09283L7.09283 6.03217ZM23.9678 22.9072L7.09283 6.03217L6.03217 7.09283L22.9072 23.9678L23.9678 22.9072Z" fill="#37414B"/>
</svg>
