<svg width="56" height="56" viewBox="0 0 56 56" fill="none" xmlns="http://www.w3.org/2000/svg">
<path d="M28 7H43C43.7956 7 44.5587 7.30855 45.1213 7.85776C45.6839 8.40697 46 9.15187 46 9.92857V45.0714C46 45.8481 45.6839 46.593 45.1213 47.1422C44.5587 47.6915 43.7956 48 43 48H13C12.2044 48 11.4413 47.6915 10.8787 47.1422C10.3161 46.593 10 45.8481 10 45.0714V18.7143L22 7V15.7857C22 16.5624 21.6839 17.3073 21.1213 17.8565C20.5587 18.4057 19.7956 18.7143 19 18.7143H10.3" stroke="#F5F5F5" stroke-width="2" stroke-linecap="round" stroke-linejoin="round"/>
</svg>
