<svg width="24" height="24" viewBox="0 0 24 24" fill="none" xmlns="http://www.w3.org/2000/svg">
<path d="M16.1448 10.775V8.72927C16.1448 8.21137 16.362 8.00421 16.905 8.00421H19.5928V3.03237C19.5598 3.01436 19.5222 3.0054 19.4842 3.00647C18.4253 3.00647 17.3394 2.98058 16.2534 3.03237C15.4542 3.07677 14.6744 3.28478 13.967 3.64224C13.2596 3.9997 12.6412 4.49824 12.1538 5.10397C11.3145 6.12035 10.8729 7.38402 10.905 8.67748V10.7491H8.2172C8.0543 10.7491 8 10.8009 8 10.9562V15.5422C8 15.6976 8.0543 15.7494 8.2172 15.7494H10.8778V21.8088C10.8697 21.8099 10.8615 21.8099 10.8534 21.8088V23.5H12.1267V14.7136H9.24887V11.9402H12.1267V11.6813C12.1267 10.6973 12.0995 9.68738 12.1267 8.70337C12.1538 6.78714 13.0769 5.38881 14.8688 4.56017C15.3746 4.31649 15.9312 4.18378 16.4977 4.17175H18.4796V6.91662H16.8235C16.581 6.90348 16.3384 6.93935 16.1115 7.02189C15.8845 7.10443 15.6784 7.23178 15.5067 7.39558C15.335 7.55939 15.2014 7.75595 15.1149 7.9724C15.0284 8.18885 14.9907 8.4203 15.0045 8.65158V11.8885H18.5611C18.4796 12.1992 18.3982 12.484 18.3167 12.7689C18.181 13.3127 18.0181 13.8824 17.8824 14.4521C17.8281 14.6333 17.7466 14.6592 17.5837 14.6592H15.0317L15 23.5H16.1964V21.8321H16.1719C16.1719 19.8123 16.1719 17.8184 16.1448 15.7468H18.5068C18.6154 15.7468 18.6968 15.7209 18.724 15.5914C19.1584 14.0118 19.5656 12.4323 20 10.8527V10.775H16.1448Z" fill="#37414B"/>
<mask id="path-2-outside-1_1022_1758" maskUnits="userSpaceOnUse" x="0" y="0" width="24" height="24" fill="black">
<rect fill="white" width="24" height="24"/>
<path d="M11.7581 22H4.57099C3.89007 21.9969 3.23791 21.7251 2.75642 21.2436C2.27493 20.7621 2.00307 20.1099 2 19.429V4.57102C2.00307 3.8901 2.27493 3.23794 2.75642 2.75645C3.23791 2.27496 3.89007 2.0031 4.57099 2.00003H19.4173C19.7559 1.99849 20.0915 2.06385 20.4048 2.19237C20.7181 2.32088 21.0029 2.51002 21.2428 2.74891C21.4828 2.9878 21.6732 3.27174 21.8032 3.58444C21.9331 3.89713 22 4.2324 22 4.57102V19.4173C22 20.0992 21.7291 20.7531 21.247 21.2353C20.7648 21.7174 20.1109 21.9883 19.429 21.9883H15.3832"/>
</mask>
<path d="M4.57099 22L4.56422 23.5H4.57099V22ZM2 19.429H0.499985L0.500015 19.4358L2 19.429ZM2 4.57102L0.5 4.56425V4.57102H2ZM4.57099 2.00003V0.500011L4.56422 0.500042L4.57099 2.00003ZM19.4173 2.00003V3.50004L19.4241 3.50001L19.4173 2.00003ZM22 4.57102L20.5 4.571V4.57102H22ZM11.7581 20.5H4.57099V23.5H11.7581V20.5ZM4.57777 20.5C4.29232 20.4987 4.01893 20.3848 3.81708 20.1829L1.69576 22.3042C2.4569 23.0654 3.48782 23.4951 4.56422 23.5L4.57777 20.5ZM3.81708 20.1829C3.61524 19.9811 3.50127 19.7077 3.49998 19.4222L0.500015 19.4358C0.504875 20.5122 0.934629 21.5431 1.69576 22.3042L3.81708 20.1829ZM3.5 19.429V4.57102H0.5V19.429H3.5ZM3.49998 4.57779C3.50127 4.29234 3.61524 4.01895 3.81708 3.81711L1.69576 1.69579C0.934628 2.45692 0.504875 3.48785 0.500015 4.56425L3.49998 4.57779ZM3.81708 3.81711C4.01893 3.61527 4.29232 3.5013 4.57777 3.50001L4.56422 0.500042C3.48783 0.504902 2.4569 0.934653 1.69576 1.69579L3.81708 3.81711ZM4.57099 3.50003H19.4173V0.500027H4.57099V3.50003ZM19.4241 3.50001C19.5652 3.49937 19.705 3.5266 19.8355 3.58013L20.9741 0.8046C20.478 0.601106 19.9467 0.497605 19.4105 0.500042L19.4241 3.50001ZM19.8355 3.58013C19.966 3.63367 20.0846 3.71246 20.1846 3.81197L22.3011 1.68584C21.9211 1.30757 21.4701 1.00809 20.9741 0.8046L19.8355 3.58013ZM20.1846 3.81197C20.2846 3.91149 20.3639 4.02977 20.418 4.16002L23.1884 3.00885C22.9826 2.51372 22.6811 2.06411 22.3011 1.68584L20.1846 3.81197ZM20.418 4.16002C20.4721 4.29028 20.5 4.42994 20.5 4.571L23.5 4.57103C23.5 4.03486 23.3941 3.50397 23.1884 3.00885L20.418 4.16002ZM20.5 4.57102V19.4173H23.5V4.57102H20.5ZM20.5 19.4173C20.5 19.7014 20.3872 19.9738 20.1863 20.1746L22.3076 22.2959C23.0711 21.5325 23.5 20.497 23.5 19.4173H20.5ZM20.1863 20.1746C19.9855 20.3755 19.7131 20.4883 19.429 20.4883V23.4883C20.5087 23.4883 21.5442 23.0594 22.3076 22.2959L20.1863 20.1746ZM19.429 20.4883H15.3832V23.4883H19.429V20.4883Z" fill="#37414B" mask="url(#path-2-outside-1_1022_1758)"/>
</svg>
