<svg width="30" height="30" viewBox="0 0 30 30" fill="none" xmlns="http://www.w3.org/2000/svg">
<path d="M15 19.6875C17.5888 19.6875 19.6875 17.5888 19.6875 15C19.6875 12.4112 17.5888 10.3125 15 10.3125C12.4112 10.3125 10.3125 12.4112 10.3125 15C10.3125 17.5888 12.4112 19.6875 15 19.6875Z" stroke="#37414B" stroke-width="1.5" stroke-miterlimit="10"/>
<path d="M20.1562 4.21875H9.84375C6.73715 4.21875 4.21875 6.73715 4.21875 9.84375V20.1562C4.21875 23.2629 6.73715 25.7812 9.84375 25.7812H20.1562C23.2629 25.7812 25.7812 23.2629 25.7812 20.1562V9.84375C25.7812 6.73715 23.2629 4.21875 20.1562 4.21875Z" stroke="#37414B" stroke-width="1.5" stroke-linecap="round" stroke-linejoin="round"/>
<path d="M21.0938 10.3125C21.8704 10.3125 22.5 9.6829 22.5 8.90625C22.5 8.1296 21.8704 7.5 21.0938 7.5C20.3171 7.5 19.6875 8.1296 19.6875 8.90625C19.6875 9.6829 20.3171 10.3125 21.0938 10.3125Z" fill="#37414B"/>
</svg>
