<svg width="30" height="30" viewBox="0 0 30 30" fill="none" xmlns="http://www.w3.org/2000/svg">
<path d="M24.8438 4.21875H5.15625C4.63848 4.21875 4.21875 4.63848 4.21875 5.15625V24.8438C4.21875 25.3615 4.63848 25.7812 5.15625 25.7812H24.8438C25.3615 25.7812 25.7812 25.3615 25.7812 24.8438V5.15625C25.7812 4.63848 25.3615 4.21875 24.8438 4.21875Z" stroke="#37414B" stroke-width="1.5" stroke-linecap="round" stroke-linejoin="round"/>
<path d="M14.0625 13.125V20.625" stroke="#37414B" stroke-width="1.5" stroke-linecap="round" stroke-linejoin="round"/>
<path d="M10.3125 13.125V20.625" stroke="#37414B" stroke-width="1.5" stroke-linecap="round" stroke-linejoin="round"/>
<path d="M14.0625 16.4063C14.0625 15.536 14.4082 14.7014 15.0236 14.0861C15.6389 13.4707 16.4735 13.125 17.3438 13.125C18.214 13.125 19.0486 13.4707 19.6639 14.0861C20.2793 14.7014 20.625 15.536 20.625 16.4063V20.625" stroke="#37414B" stroke-width="1.5" stroke-linecap="round" stroke-linejoin="round"/>
<path d="M10.2656 10.7812C10.9128 10.7812 11.4375 10.2566 11.4375 9.60938C11.4375 8.96217 10.9128 8.4375 10.2656 8.4375C9.61842 8.4375 9.09375 8.96217 9.09375 9.60938C9.09375 10.2566 9.61842 10.7812 10.2656 10.7812Z" fill="#37414B"/>
</svg>
