<svg width="20" height="20" viewBox="0 0 20 20" fill="none" xmlns="http://www.w3.org/2000/svg">
<path d="M12.5003 6.24967L5.99253 12.8669C5.77708 13.1046 5.66132 13.4162 5.66922 13.7369C5.67711 14.0577 5.80806 14.3632 6.03495 14.5901C6.26184 14.8169 6.5673 14.9479 6.88807 14.9558C7.20884 14.9637 7.52037 14.8479 7.75815 14.6325L15.516 6.7653C15.9469 6.28974 16.1784 5.66668 16.1626 5.02514C16.1468 4.38359 15.8849 3.77268 15.4311 3.3189C14.9773 2.86512 14.3664 2.60322 13.7249 2.58743C13.0833 2.57163 12.4603 2.80315 11.9847 3.23405L4.2269 11.1012C3.52449 11.8036 3.12988 12.7563 3.12988 13.7497C3.12988 14.743 3.52449 15.6957 4.2269 16.3981C4.92931 17.1005 5.88198 17.4951 6.87534 17.4951C7.8687 17.4951 8.82137 17.1005 9.52378 16.3981L15.9378 9.99967" stroke="#737A81" stroke-linecap="round" stroke-linejoin="round"/>
</svg>
