<svg width="30" height="30" viewBox="0 0 30 30" fill="none" xmlns="http://www.w3.org/2000/svg">
<path d="M14.9999 10.3128C15 9.23584 15.3709 8.19171 16.0503 7.35601C16.7296 6.5203 17.676 5.94397 18.7303 5.72391C19.7845 5.50386 20.8824 5.6535 21.8394 6.14767C22.7963 6.64185 23.5539 7.45042 23.9848 8.43746L28.1249 8.4375L24.3442 12.2183C24.098 16.021 22.4138 19.5875 19.6336 22.1935C16.8534 24.7996 13.1856 26.2499 9.3749 26.25C5.6249 26.25 4.6874 24.8438 4.6874 24.8438C4.6874 24.8438 8.4374 23.4375 10.3124 20.625C10.3124 20.625 2.8124 16.875 4.6874 6.5625C4.6874 6.5625 9.3749 11.25 14.9983 12.1875L14.9999 10.3128Z" stroke="#37414B" stroke-width="1.5" stroke-linecap="round" stroke-linejoin="round"/>
</svg>
