<svg width="42" height="42" viewBox="0 0 42 42" fill="none" xmlns="http://www.w3.org/2000/svg">
<path d="M41.4617 28.3569L40.495 27.0444L36.3178 21.449C36.1107 21.1727 36.1107 20.8273 36.3178 20.551L37.4916 18.9622L41.4617 13.6431C42.1176 12.7451 42.1521 11.5362 41.5652 10.5691L35.7309 1.41612C35.144 0.518092 34.1774 0 33.1072 0H3.00347C1.34638 0 0 1.34704 0 3.00493V38.9951C0 40.653 1.34638 42 3.00347 42H33.0727C34.1429 42 35.1095 41.4819 35.7309 40.5493L41.5998 31.4309C42.1866 30.4638 42.1176 29.2895 41.4617 28.3569ZM38.6308 30.4293L33.4179 38.6151C33.2798 38.8224 33.0381 38.9605 32.7965 38.9605H3.79749C3.38322 38.9605 3.03799 38.6151 3.03799 38.2007V3.79934C3.03799 3.38487 3.38322 3.03947 3.79749 3.03947H32.7965C33.0381 3.03947 33.2798 3.17763 33.4179 3.38487L38.6308 11.6053C38.8034 11.8816 38.7689 12.1924 38.5963 12.4687L34.4536 18.0296H33.7631L30.1382 13.1941C29.5514 12.4342 28.6883 11.9852 27.7217 11.9852H15.0173C13.3603 11.9852 12.0139 13.3322 12.0139 14.9901V26.9753C12.0139 28.6332 13.3603 29.9803 15.0173 29.9803H27.8943C28.8609 29.9803 29.7585 29.5312 30.3454 28.7368L32.2441 26.1118L30.6216 23.9359H30.0347L28.0669 26.5954C27.9288 26.8026 27.6871 26.9062 27.48 26.9062H15.7768C15.3626 26.9062 15.0173 26.5609 15.0173 26.1464V15.7845C15.0173 15.3701 15.3626 15.0247 15.7768 15.0247H27.3419C27.5836 15.0247 27.7907 15.1283 27.9288 15.3355L38.5618 29.6003C38.7689 29.8421 38.7689 30.1875 38.6308 30.4293Z" fill="#F5F5F5"/>
</svg>
